<svg enable-background="new 0 0 32 32" viewBox="0 0 32 32" xmlns="http://www.w3.org/2000/svg"><g id="_x30_3"><path d="m21.5127 6.1299-4.8882-3.9106c-.3652-.292-.8838-.292-1.249 0l-5 4c-.332.2651-.4595.7109-.3193 1.1118.1406.4008.519.6689.9438.6689h2v8c0 .5522.4478 1 1 1h4c.5527 0 1-.4478 1-1v-8h2c.0078.0005.0146 0 .0195 0 .5527 0 1-.4478 1-1 0-.373-.2041-.6982-.5068-.8701z"></path><path d="m23 10h-3v6.9792c0 .5638-.457 1.0208-1.0208 1.0208h-5.9583c-.5639 0-1.0209-.457-1.0209-1.0208v-6.9792h-3c-.5523 0-1 .4477-1 1v18c0 .5523.4477 1 1 1h14c.5523 0 1-.4477 1-1v-18c0-.5523-.4477-1-1-1zm-3 17h-8c-.5522 0-1-.4478-1-1s.4478-1 1-1h8c.5527 0 1 .4478 1 1s-.4473 1-1 1zm0-4h-8c-.5522 0-1-.4478-1-1s.4478-1 1-1h8c.5527 0 1 .4478 1 1s-.4473 1-1 1z"></path></g></svg>