<svg width="171" height="24" viewBox="0 0 171 24" fill="none" xmlns="http://www.w3.org/2000/svg">
<path fill-rule="evenodd" clip-rule="evenodd" d="M168.643 20.25L165.39 20.2363V13.3784H140.698V20.2363H137.465V3.77743H140.698V10.0867H165.39V3.77743H168.643V20.2363V20.25ZM106.828 11.4582H131.466V8.35162C131.466 7.48068 131.032 7.04863 130.165 7.04863H108.137C107.269 7.04863 106.828 7.49439 106.828 8.39277V11.4651V11.4582ZM134.753 20.2363H131.466V14.75H106.828V20.2363H103.575V7.83728C103.575 5.11472 104.883 3.75 107.506 3.75H130.822C133.439 3.75 134.753 5.12157 134.753 7.87843V20.2363ZM72.966 16.9445H96.282C97.1835 16.9445 97.6376 16.4988 97.6376 15.6004V14.9352C97.6376 14.0848 97.1767 13.6527 96.282 13.6527H72.966V16.9445ZM100.857 16.1902C100.857 18.8921 99.5218 20.2363 96.8717 20.2363H69.6855V3.75686H100.864V7.04863H72.966V10.3678H96.8717C99.5354 10.3678 100.871 11.6708 100.871 14.2768V16.197L100.857 16.1902ZM39.0764 14.7706V20.25H35.7959V3.75686H62.9753C65.6458 3.75686 66.9743 5.05985 66.9743 7.67955V10.697C66.9743 13.4196 65.6594 14.7774 63.016 14.7774H39.0899L39.0764 14.7706ZM62.3924 7.04863H39.0764V11.4719L62.4399 11.4239C63.2329 11.4239 63.626 10.985 63.6395 10.1209V8.31733C63.6395 7.47381 63.2329 7.04177 62.3856 7.04177L62.3924 7.04863ZM5.15965 11.4719H29.8042V8.35162C29.8042 7.48068 29.3636 7.04863 28.496 7.04863H6.46779C5.60021 7.04863 5.16643 7.49439 5.16643 8.39277V11.4788L5.15965 11.4719ZM33.0847 20.25H29.8042V14.7843H5.15965V20.25H1.90625V7.83728C1.90625 5.11472 3.22117 3.75 5.83745 3.75H29.1535C31.7698 3.75 33.0847 5.12157 33.0847 7.87843V20.2363V20.25Z" fill="#ffffff"/>
</svg>
